<svg xmlns="http://www.w3.org/2000/svg" viewBox="0 0 249.5 70.87"><defs><style>.cls-1{fill:#e30c0c;}.cls-2{fill:#323333;}</style></defs><title>logo-qantas-assure</title><g id="Qantas_Assure" data-name="Qantas Assure"><path class="cls-1" d="M0,15.45C0,6.29,5.46.56,13.88,0V6.38C9.53,6.85,7,10.55,7,15.27v32.1c0,4.72,2.5,8.42,6.85,8.88v6.38C5.46,62.08,0,56.34,0,47.18ZM21.65,70.87l-5.46-8.23V56.25c4.35-.55,6.85-4.16,6.85-8.88V15.27c0-4.72-2.5-8.33-6.85-8.88V0c8.42.56,13.88,6.38,13.88,15.45V47.18c0,6.38-2.68,11.19-7.22,13.6L29.6,70.87Z"/><path class="cls-2" d="M140.09,27.27v-.63a4.87,4.87,0,0,0-5.23-5c-3.2,0-5.26,2.12-5.26,4.75s1.63,3.95,3.75,4.95l2.12,1c1.57.74,2.89,1.37,2.89,3.55a3.25,3.25,0,0,1-3.52,3.29c-2.23,0-3.49-1.34-3.49-3.06v-.86h-2.12V36c0,3,2.37,5,5.63,5,3.46,0,5.58-2.23,5.58-5.35s-2.2-4.35-4.32-5.35l-2.12-1c-1.32-.63-2.35-1.26-2.35-3.06a2.85,2.85,0,0,1,3.15-2.77A3,3,0,0,1,138,26.53v.74ZM122.87,40.71h2.26L119.7,21.92h-2.23l-5.38,18.79h2.14l1.14-4.32h6.32Zm-1.72-6.21h-5.23l2.6-9.67ZM98.53,23.87h4.4V40.71h2.17V23.87h4.43V21.92h-11Zm-5.46-1.94h-2V36l-7-14H82.12V40.71h2V26.44l7.15,14.27h1.8ZM74.31,40.71h2.26L71.14,21.92H68.9L63.53,40.71h2.14l1.14-4.32h6.32Zm-1.72-6.21H67.36L70,24.84ZM49.43,27.44c0-2.2,1.29-3.86,3.49-3.86s3.49,1.66,3.49,3.86v7.75c0,2.2-1.26,3.86-3.49,3.86s-3.49-1.66-3.49-3.86Zm8.89,16.79-2.46-3.92a5.57,5.57,0,0,0,2.72-5.18V27.5c0-3.6-2.32-5.86-5.66-5.86s-5.66,2.26-5.66,5.86v7.64c0,3.6,2.29,5.86,5.66,5.86a3.62,3.62,0,0,0,.8-.09l2,3.32ZM162.88,36.4h-6.32l-1.14,4.32h-2.14l5.38-18.79h2.23l5.43,18.79h-2.26Zm-3.17-11.55-2.6,9.67h5.23Zm19.5,2.43v-.74A3,3,0,0,0,176,23.47a2.85,2.85,0,0,0-3.15,2.78c0,1.8,1,2.43,2.34,3.06l2.12,1c2.12,1,4.32,2.09,4.32,5.35S179.5,41,176,41c-3.26,0-5.63-2-5.63-5v-.75h2.12v.86c0,1.72,1.26,3.06,3.49,3.06a3.25,3.25,0,0,0,3.52-3.29c0-2.17-1.31-2.8-2.89-3.54l-2.12-1c-2.12-1-3.75-2.32-3.75-4.95s2.06-4.75,5.26-4.75a4.87,4.87,0,0,1,5.23,5v.63Zm16.47,0v-.74a3,3,0,0,0-3.23-3.06,2.85,2.85,0,0,0-3.15,2.78c0,1.8,1,2.43,2.34,3.06l2.12,1c2.12,1,4.32,2.09,4.32,5.35S196,41,192.51,41c-3.26,0-5.63-2-5.63-5v-.75H189v.86c0,1.72,1.26,3.06,3.49,3.06A3.25,3.25,0,0,0,196,35.88c0-2.17-1.32-2.8-2.89-3.54l-2.12-1c-2.12-1-3.75-2.32-3.75-4.95s2.06-4.75,5.26-4.75a4.87,4.87,0,0,1,5.23,5v.63Zm19.53-5.35V35.14c0,3.6-2.26,5.86-5.52,5.86s-5.55-2.26-5.55-5.86V21.92h2.17V35.19c0,2.2,1.23,3.86,3.37,3.86S213,37.39,213,35.19V21.92Zm6.95,18.79V21.92h4.89c3.6,0,6.21,2.2,6.21,5.6a5.43,5.43,0,0,1-3.12,5.23l3.09,7.95h-2.37L228,33.25a8.37,8.37,0,0,1-1,.06h-2.66v7.41Zm2.17-16.87v7.58h2.6A3.73,3.73,0,0,0,231,27.53c0-2.23-1.57-3.69-4.09-3.69Zm17.33,8.24v6.69h7.84v1.94h-10V21.92h9.78v1.94h-7.61v6.29h7v1.92Z"/></g><g id="Roo_Shading" data-name="Roo Shading"><path class="cls-2" d="M137.18,62.63h-1.29V57.57h-4.52v5.06h-1.28v-11h1.28v4.83h4.52V51.59h1.29Z"/><path class="cls-2" d="M146.18,59.89V60a2.75,2.75,0,0,1-3,2.79A2.9,2.9,0,0,1,140,59.74v-2.3a3.09,3.09,0,1,1,6.17,0v1.25h-5v1.18a1.82,1.82,0,0,0,1.92,1.93A1.68,1.68,0,0,0,145,60.08v-.19Zm-5-2.17H145v-.4a1.91,1.91,0,1,0-3.8,0Z"/><path class="cls-2" d="M148.52,57.29a2.73,2.73,0,0,1,2.84-3,2.64,2.64,0,0,1,2.24,1.11l.19-.94h.94v8.22h-.94l-.19-.94a2.66,2.66,0,0,1-2.24,1.11,2.73,2.73,0,0,1-2.84-3Zm5,2.41V57.37a1.89,1.89,0,0,0-1.93-2,1.74,1.74,0,0,0-1.82,1.9v2.57a1.73,1.73,0,0,0,1.82,1.9A1.88,1.88,0,0,0,153.49,59.69Z"/><path class="cls-2" d="M159,51.25V62.63h-1.24V51.25Z"/><path class="cls-2" d="M161.18,54.46h1.58V52.23H164v2.24h1.58v1H164v7.13h-1.24V55.5h-1.58Z"/><path class="cls-2" d="M167.74,62.63V51.25H169v4a2.64,2.64,0,0,1,2.15-1,2.69,2.69,0,0,1,2.83,3v5.38h-1.23v-5.4a1.74,1.74,0,0,0-1.82-1.9,1.89,1.89,0,0,0-1.93,2v5.26Z"/><path class="cls-2" d="M182.34,62.63h-1.28v-11h1.28Z"/><path class="cls-2" d="M185.45,62.63V54.41h.94l.19,1a2.62,2.62,0,0,1,2.25-1.14,2.69,2.69,0,0,1,2.83,3v5.38h-1.23v-5.4a1.74,1.74,0,0,0-1.82-1.9,1.89,1.89,0,0,0-1.93,2v5.26Z"/><path class="cls-2" d="M195.17,60.09v.29c0,.82.71,1.43,1.92,1.43s1.75-.57,1.75-1.38-.32-1-1.09-1.24l-1.58-.49a2.26,2.26,0,0,1-1.9-2.15,2.52,2.52,0,0,1,2.77-2.3c1.73,0,2.93.89,2.93,2.4v.13h-1.16v-.2c0-.76-.64-1.36-1.77-1.36-.76,0-1.61.39-1.61,1.23,0,.55.3.89,1,1.09l1.4.44c1.23.39,2.22.89,2.22,2.32s-1.14,2.5-2.93,2.5S194,61.86,194,60.31v-.22Z"/><path class="cls-2" d="M202.49,54.41h1.23v5.45a1.67,1.67,0,0,0,1.73,1.85,1.87,1.87,0,0,0,1.92-2V54.41h1.23v8.22h-.94l-.18-.94a2.66,2.66,0,0,1-2.24,1.11,2.63,2.63,0,0,1-2.74-2.94Z"/><path class="cls-2" d="M211.52,62.63V54.41h.94l.2,1a2.5,2.5,0,0,1,2.19-1.21,3.29,3.29,0,0,1,.4,0v1.18a3.77,3.77,0,0,0-.5-.05,1.93,1.93,0,0,0-2,2.05v5.18Z"/><path class="cls-2" d="M217,57.29a2.73,2.73,0,0,1,2.84-3A2.65,2.65,0,0,1,222,55.35l.18-.94h.94v8.22h-.94l-.18-.94a2.67,2.67,0,0,1-2.24,1.11,2.73,2.73,0,0,1-2.84-3Zm5,2.41V57.37a1.89,1.89,0,0,0-1.93-2,1.74,1.74,0,0,0-1.82,1.9v2.57a1.74,1.74,0,0,0,1.82,1.9A1.88,1.88,0,0,0,221.93,59.69Z"/><path class="cls-2" d="M226.09,62.63V54.41H227l.18,1a2.62,2.62,0,0,1,2.25-1.14,2.69,2.69,0,0,1,2.82,3v5.38h-1.23v-5.4a1.74,1.74,0,0,0-1.82-1.9,1.89,1.89,0,0,0-1.93,2v5.26Z"/><path class="cls-2" d="M241.08,59.79v.15A2.78,2.78,0,0,1,238,62.8a3,3,0,0,1-3.13-3.19V57.44A3,3,0,0,1,238,54.24a2.79,2.79,0,0,1,3.08,2.84v.1h-1.19V57A1.68,1.68,0,0,0,238,55.32a1.85,1.85,0,0,0-1.9,2v2.35a1.85,1.85,0,0,0,1.9,2,1.66,1.66,0,0,0,1.88-1.7v-.25Z"/><path class="cls-2" d="M249.5,59.89V60a2.75,2.75,0,0,1-3,2.79,2.9,2.9,0,0,1-3.13-3.06v-2.3a3.09,3.09,0,1,1,6.17,0v1.25h-5v1.18a1.82,1.82,0,0,0,1.92,1.93,1.68,1.68,0,0,0,1.88-1.71v-.19Zm-5-2.17h3.8v-.4a1.91,1.91,0,1,0-3.8,0Z"/></g></svg>