<?xml version="1.0" encoding="utf-8"?>
<!-- Generator: Adobe Illustrator 19.2.1, SVG Export Plug-In . SVG Version: 6.00 Build 0)  -->
<svg version="1.1" id="Layer_1" xmlns="http://www.w3.org/2000/svg" xmlns:xlink="http://www.w3.org/1999/xlink" x="0px" y="0px"
	 viewBox="0 0 517.9 117.7" style="enable-background:new 0 0 517.9 117.7;" xml:space="preserve">
<style type="text/css">
	.st0{clip-path:url(#SVGID_2_);}
	.st1{clip-path:url(#SVGID_4_);fill:url(#SVGID_5_);}
	.st2{clip-path:url(#SVGID_7_);fill:#FFFFFF;}
	.st3{filter:url(#Adobe_OpacityMaskFilter);}
	.st4{clip-path:url(#SVGID_9_);fill:url(#SVGID_11_);}
	.st5{clip-path:url(#SVGID_9_);mask:url(#SVGID_10_);fill:url(#SVGID_12_);}
	.st6{filter:url(#Adobe_OpacityMaskFilter_1_);}
	.st7{clip-path:url(#SVGID_14_);fill:url(#SVGID_16_);}
	.st8{clip-path:url(#SVGID_14_);mask:url(#SVGID_15_);fill:url(#SVGID_17_);}
	.st9{filter:url(#Adobe_OpacityMaskFilter_2_);}
	.st10{clip-path:url(#SVGID_19_);fill:url(#SVGID_21_);}
	.st11{clip-path:url(#SVGID_19_);mask:url(#SVGID_20_);fill:url(#SVGID_22_);}
	.st12{clip-path:url(#SVGID_24_);fill:#323232;}
	.st13{clip-path:url(#SVGID_24_);fill:#E40000;}
</style>
<g>
	<defs>
		<rect id="SVGID_1_" width="517.9" height="117.7"/>
	</defs>
	<clipPath id="SVGID_2_">
		<use xlink:href="#SVGID_1_"  style="overflow:visible;"/>
	</clipPath>
	<g class="st0">
		<defs>
			<path id="SVGID_3_" d="M353.3,0.7l1.5,3.9l6.7,17.5l36.4,95.6h120l-96.2-96.6C408.9,8.3,391.5,0.7,373.4,0.7H353.3z"/>
		</defs>
		<clipPath id="SVGID_4_">
			<use xlink:href="#SVGID_3_"  style="overflow:visible;"/>
		</clipPath>
		
			<linearGradient id="SVGID_5_" gradientUnits="userSpaceOnUse" x1="0" y1="117.5576" x2="1" y2="117.5576" gradientTransform="matrix(-80.039 -116.894 -116.894 80.039 14211.457 -9300.2344)">
			<stop  offset="0" style="stop-color:#BE0000"/>
			<stop  offset="0.3828" style="stop-color:#DD0000"/>
			<stop  offset="0.7663" style="stop-color:#F60000"/>
			<stop  offset="1" style="stop-color:#FF0000"/>
		</linearGradient>
		<polygon class="st1" points="405.8,194.4 298.8,38 465.3,-76.1 572.4,80.3 		"/>
	</g>
	<g class="st0">
		<defs>
			<rect id="SVGID_6_" y="0" width="517.9" height="117.7"/>
		</defs>
		<clipPath id="SVGID_7_">
			<use xlink:href="#SVGID_6_"  style="overflow:visible;"/>
		</clipPath>
		<path class="st2" d="M361.5,22.1c13.1,22.4,47.6,24.8,51.4,59.7c0.2,1.4,1.3,2.6,2.7,2.8c19.9,3.1,39.2,11.3,56,24.8l0,0
			c0.1,0.1,0.2,0.1,0.4,0.1c0.1,0,0.3-0.1,0.4-0.2c0.2-0.2,0.2-0.6,0-0.8c-11.6-12.2-25.9-22-41.8-28.4l-4.9-2
			c-2.5-1-4.2-3.5-4.2-6.3c0.3-10.4,24.9-8.3,27.4-13.3l0.4-0.9c-5.1-4.3-11.1-7.6-17.7-9.4c-0.1,0.3-0.2,1.5,1.1,3.7
			c1.5,2.4-1.6,6.2-6.1,2.1l-0.4-0.3C393,23,368,38.9,354.8,4.6L361.5,22.1z"/>
	</g>
	<g class="st0">
		<defs>
			<path id="SVGID_8_" d="M430.4,55.7V64c3.6-1,7.7-1.7,11.1-2.4V57c0,0-5.5,0.3-8.8-5.2C433.7,53.4,432.6,55.7,430.4,55.7"/>
		</defs>
		<clipPath id="SVGID_9_">
			<use xlink:href="#SVGID_8_"  style="overflow:visible;"/>
		</clipPath>
		<defs>
			<filter id="Adobe_OpacityMaskFilter" filterUnits="userSpaceOnUse" x="429.4" y="50.8" width="13.3" height="14.2">
				<feColorMatrix  type="matrix" values="1 0 0 0 0  0 1 0 0 0  0 0 1 0 0  0 0 0 1 0"/>
			</filter>
		</defs>
		<mask maskUnits="userSpaceOnUse" x="429.4" y="50.8" width="13.3" height="14.2" id="SVGID_10_">
			<g class="st3">
				
					<linearGradient id="SVGID_11_" gradientUnits="userSpaceOnUse" x1="-7.655276e-05" y1="117.6663" x2="0.9999" y2="117.6663" gradientTransform="matrix(1.0789 -12.3322 -12.3322 -1.0789 1886.4855 191.4139)">
					<stop  offset="0" style="stop-color:#000000"/>
					<stop  offset="0.65" style="stop-color:#000000"/>
					<stop  offset="0.6967" style="stop-color:#3D3D3D"/>
					<stop  offset="0.7472" style="stop-color:#777777"/>
					<stop  offset="0.796" style="stop-color:#A8A8A8"/>
					<stop  offset="0.8419" style="stop-color:#CECECE"/>
					<stop  offset="0.8841" style="stop-color:#E9E9E9"/>
					<stop  offset="0.9215" style="stop-color:#F9F9F9"/>
					<stop  offset="0.95" style="stop-color:#FFFFFF"/>
					<stop  offset="1" style="stop-color:#FFFFFF"/>
				</linearGradient>
				<polygon class="st4" points="429.4,63.9 430.5,50.8 442.6,51.9 441.5,65 				"/>
			</g>
		</mask>
		
			<linearGradient id="SVGID_12_" gradientUnits="userSpaceOnUse" x1="-7.655742e-05" y1="117.6663" x2="0.9999" y2="117.6663" gradientTransform="matrix(1.0789 -12.3322 -12.3322 -1.0789 1886.4855 191.4139)">
			<stop  offset="0" style="stop-color:#FFFFFF"/>
			<stop  offset="0.65" style="stop-color:#FFFFFF"/>
			<stop  offset="0.7282" style="stop-color:#E0E0E0"/>
			<stop  offset="0.8147" style="stop-color:#C5C5C5"/>
			<stop  offset="0.8915" style="stop-color:#B5B5B5"/>
			<stop  offset="0.95" style="stop-color:#AFAFAF"/>
			<stop  offset="1" style="stop-color:#AFAFAF"/>
		</linearGradient>
		<polygon class="st5" points="429.4,63.9 430.5,50.8 442.6,51.9 441.5,65 		"/>
	</g>
	<g class="st0">
		<defs>
			<path id="SVGID_13_" d="M419.6,85.3c18.4,3.5,36.3,11.5,51.9,24c-25-21.4-40.3-24.7-47.3-24.7C421.4,84.7,419.9,85.2,419.6,85.3"
				/>
		</defs>
		<clipPath id="SVGID_14_">
			<use xlink:href="#SVGID_13_"  style="overflow:visible;"/>
		</clipPath>
		<defs>
			<filter id="Adobe_OpacityMaskFilter_1_" filterUnits="userSpaceOnUse" x="419.6" y="84.7" width="51.9" height="24.7">
				<feColorMatrix  type="matrix" values="1 0 0 0 0  0 1 0 0 0  0 0 1 0 0  0 0 0 1 0"/>
			</filter>
		</defs>
		<mask maskUnits="userSpaceOnUse" x="419.6" y="84.7" width="51.9" height="24.7" id="SVGID_15_">
			<g class="st6">
				
					<linearGradient id="SVGID_16_" gradientUnits="userSpaceOnUse" x1="-1.940235e-05" y1="117.661" x2="1" y2="117.661" gradientTransform="matrix(51.9051 0 0 -51.9051 419.621 6204.21)">
					<stop  offset="0" style="stop-color:#000000"/>
					<stop  offset="9.916679e-02" style="stop-color:#343434"/>
					<stop  offset="0.2151" style="stop-color:#696969"/>
					<stop  offset="0.3326" style="stop-color:#979797"/>
					<stop  offset="0.4492" style="stop-color:#BCBCBC"/>
					<stop  offset="0.5649" style="stop-color:#DADADA"/>
					<stop  offset="0.6792" style="stop-color:#EEEEEE"/>
					<stop  offset="0.7916" style="stop-color:#FBFBFB"/>
					<stop  offset="0.9" style="stop-color:#FFFFFF"/>
					<stop  offset="1" style="stop-color:#FFFFFF"/>
				</linearGradient>
				<rect x="419.6" y="84.7" class="st7" width="51.9" height="24.7"/>
			</g>
		</mask>
		
			<linearGradient id="SVGID_17_" gradientUnits="userSpaceOnUse" x1="-1.940235e-05" y1="117.661" x2="1" y2="117.661" gradientTransform="matrix(51.9051 0 0 -51.9051 419.621 6204.21)">
			<stop  offset="0" style="stop-color:#FFFFFF"/>
			<stop  offset="8.327577e-02" style="stop-color:#F1F1F1"/>
			<stop  offset="0.2919" style="stop-color:#D4D4D4"/>
			<stop  offset="0.4994" style="stop-color:#C0C0C0"/>
			<stop  offset="0.7035" style="stop-color:#B3B3B3"/>
			<stop  offset="0.9" style="stop-color:#AFAFAF"/>
			<stop  offset="1" style="stop-color:#AFAFAF"/>
		</linearGradient>
		<rect x="419.6" y="84.7" class="st8" width="51.9" height="24.7"/>
	</g>
	<g class="st0">
		<defs>
			<path id="SVGID_18_" d="M361.5,22.1c13.1,22.4,47.6,24.8,51.4,59.7c-3.8-44.5-23.3-37.9-44.3-58.1h0c-5.4-3.9-10-9.5-13.7-19
				L361.5,22.1z"/>
		</defs>
		<clipPath id="SVGID_19_">
			<use xlink:href="#SVGID_18_"  style="overflow:visible;"/>
		</clipPath>
		<defs>
			<filter id="Adobe_OpacityMaskFilter_2_" filterUnits="userSpaceOnUse" x="354.8" y="4.6" width="58" height="77.2">
				<feColorMatrix  type="matrix" values="1 0 0 0 0  0 1 0 0 0  0 0 1 0 0  0 0 0 1 0"/>
			</filter>
		</defs>
		<mask maskUnits="userSpaceOnUse" x="354.8" y="4.6" width="58" height="77.2" id="SVGID_20_">
			<g class="st9">
				
					<linearGradient id="SVGID_21_" gradientUnits="userSpaceOnUse" x1="1.577926e-06" y1="117.661" x2="1" y2="117.661" gradientTransform="matrix(58.0209 0 0 -58.0209 354.7949 6869.9756)">
					<stop  offset="0" style="stop-color:#000000"/>
					<stop  offset="0.25" style="stop-color:#000000"/>
					<stop  offset="0.3281" style="stop-color:#131313"/>
					<stop  offset="0.4858" style="stop-color:#434343"/>
					<stop  offset="0.709" style="stop-color:#909090"/>
					<stop  offset="0.9868" style="stop-color:#FAFAFA"/>
					<stop  offset="1" style="stop-color:#FFFFFF"/>
				</linearGradient>
				<rect x="354.8" y="4.6" class="st10" width="58" height="77.2"/>
			</g>
		</mask>
		
			<linearGradient id="SVGID_22_" gradientUnits="userSpaceOnUse" x1="1.577927e-06" y1="117.661" x2="1" y2="117.661" gradientTransform="matrix(58.0209 0 0 -58.0209 354.7949 6869.9761)">
			<stop  offset="0" style="stop-color:#FFFFFF"/>
			<stop  offset="0.25" style="stop-color:#FFFFFF"/>
			<stop  offset="0.4649" style="stop-color:#ECECEC"/>
			<stop  offset="0.8983" style="stop-color:#BBBBBB"/>
			<stop  offset="1" style="stop-color:#AFAFAF"/>
		</linearGradient>
		<rect x="354.8" y="4.6" class="st11" width="58" height="77.2"/>
	</g>
	<g class="st0">
		<defs>
			<rect id="SVGID_23_" y="0" width="517.9" height="117.7"/>
		</defs>
		<clipPath id="SVGID_24_">
			<use xlink:href="#SVGID_23_"  style="overflow:visible;"/>
		</clipPath>
		<path class="st12" d="M184.6,113.1h17v4.5h-22.1V73.8h5.1V113.1z M229,117.7v-17.5l-11.4-26.4h5.3l8.8,21.3l8.7-21.3h5.1
			l-11.4,26.3v17.6H229z M269.9,97.5v15.6h18.3v4.5h-23.4V73.8h22.8v4.5h-17.8V93h16.3v4.5H269.9z M309.6,117.7V73.8H321
			c8.4,0,14.5,5.1,14.5,13.1c0,5.9-2.9,10.3-7.3,12.2l7.2,18.6h-5.5l-6.7-17.4c-0.3,0.1-1.5,0.1-2.3,0.1h-6.2v17.3H309.6z
			 M314.7,78.3V96h6.1c5.9,0,9.6-3.6,9.6-9.1c0-5.2-3.7-8.6-9.6-8.6H314.7z M5.1,25.6v19H0V0.7h22.8v4.5H5.1V21h16.3v4.5H5.1z
			 M41.3,44.5V0.7h11.4c8.4,0,14.5,5.1,14.5,13.1c0,5.9-2.9,10.3-7.3,12.2l7.2,18.6h-5.5l-6.7-17.4c-0.3,0.1-1.5,0.1-2.3,0.1h-6.2
			v17.3H41.3z M46.4,5.1v17.7h6.1c5.9,0,9.5-3.6,9.5-9.1c0-5.2-3.7-8.6-9.5-8.6H46.4z M92,24.4V40h18.3v4.5H87V0.7h22.8v4.5H92v14.7
			h16.3v4.5H92z M200,0.7v30.9c0,8.4-5.3,13.7-12.9,13.7c-7.7,0-13-5.3-13-13.7V0.7h5.1v31c0,5.1,2.9,9,7.9,9c4.9,0,7.8-3.9,7.8-9
			v-31H200z M225.7,24.4V40H244v4.5h-23.4V0.7h22.8v4.5h-17.8v14.7H242v4.5H225.7z M289.3,44.5h-4.2l-16.7-33.3v33.3h-4.7V0.7h4.5
			l16.4,32.8V0.7h4.7V44.5z M308.3,0.7H334v4.5h-10.4v39.3h-5.1V5.2h-10.3V0.7z"/>
		<path class="st13" d="M147.8,52.8l-4.6-7.7c-0.6,0.1-1.2,0.2-1.9,0.2c-7.9,0-13.2-5.3-13.2-13.7V13.7c0-8.4,5.1-13.7,13.2-13.7
			c7.8,0,13.2,5.3,13.2,13.7v17.8c0,5.7-2.4,9.9-6.3,12.1l5.7,9.1H147.8z M133.2,31.7c0,5.1,3,9,8.1,9c5.2,0,8.1-3.9,8.1-9V13.6
			c0-5.1-2.9-9-8.1-9c-5.1,0-8.1,3.9-8.1,9V31.7z M137.5,98.7v19h-5.1V73.8h22.8v4.5h-17.8v15.8h16.3v4.5H137.5z"/>
	</g>
</g>
</svg>
